<svg width="855" height="340" viewBox="0 0 855 340" fill="none" xmlns="http://www.w3.org/2000/svg">
<path d="M89.048 216.024C86.4027 216.024 84.3547 215.299 82.904 213.848C81.5387 212.312 80.856 210.221 80.856 207.576V133.08C80.856 130.349 81.5813 128.301 83.032 126.936C84.4827 125.485 86.5307 124.76 89.176 124.76H120.024C129.923 124.76 137.56 127.235 142.936 132.184C148.312 137.133 151 144.045 151 152.92C151 161.795 148.312 168.749 142.936 173.784C137.56 178.733 129.923 181.208 120.024 181.208H97.24V207.576C97.24 210.221 96.5573 212.312 95.192 213.848C93.8267 215.299 91.7787 216.024 89.048 216.024ZM97.24 168.28H117.464C123.267 168.28 127.661 167 130.648 164.44C133.635 161.795 135.128 157.955 135.128 152.92C135.128 147.885 133.635 144.088 130.648 141.528C127.661 138.968 123.267 137.688 117.464 137.688H97.24V168.28ZM185.348 216.024C182.703 216.024 180.655 215.299 179.204 213.848C177.839 212.312 177.156 210.221 177.156 207.576V133.08C177.156 130.349 177.881 128.301 179.332 126.936C180.783 125.485 182.831 124.76 185.476 124.76H216.324C226.223 124.76 233.86 127.149 239.236 131.928C244.612 136.621 247.3 143.235 247.3 151.768C247.3 157.315 246.063 162.093 243.588 166.104C241.199 170.115 237.7 173.187 233.092 175.32C228.484 177.453 222.895 178.52 216.324 178.52L217.476 176.6H221.7C225.199 176.6 228.228 177.453 230.788 179.16C233.433 180.867 235.737 183.555 237.7 187.224L247.3 205.016C248.324 206.808 248.793 208.557 248.708 210.264C248.623 211.971 247.983 213.379 246.788 214.488C245.593 215.512 243.844 216.024 241.54 216.024C239.236 216.024 237.359 215.555 235.908 214.616C234.457 213.592 233.177 212.056 232.068 210.008L219.14 186.2C217.604 183.299 215.769 181.379 213.636 180.44C211.588 179.416 208.943 178.904 205.7 178.904H193.54V207.576C193.54 210.221 192.857 212.312 191.492 213.848C190.127 215.299 188.079 216.024 185.348 216.024ZM193.54 166.744H213.508C219.396 166.744 223.833 165.549 226.82 163.16C229.892 160.685 231.428 157.016 231.428 152.152C231.428 147.373 229.892 143.789 226.82 141.4C223.833 138.925 219.396 137.688 213.508 137.688H193.54V166.744ZM317.529 216.28C308.825 216.28 301.188 214.36 294.617 210.52C288.132 206.68 283.097 201.304 279.513 194.392C275.929 187.395 274.137 179.203 274.137 169.816C274.137 162.733 275.161 156.376 277.209 150.744C279.257 145.027 282.158 140.163 285.913 136.152C289.753 132.056 294.318 128.941 299.609 126.808C304.985 124.589 310.958 123.48 317.529 123.48C326.318 123.48 333.956 125.4 340.441 129.24C346.926 132.995 351.961 138.328 355.545 145.24C359.129 152.152 360.921 160.301 360.921 169.688C360.921 176.771 359.897 183.171 357.849 188.888C355.801 194.605 352.857 199.512 349.017 203.608C345.262 207.704 340.697 210.861 335.321 213.08C330.03 215.213 324.1 216.28 317.529 216.28ZM317.529 202.2C323.076 202.2 327.769 200.92 331.609 198.36C335.534 195.8 338.521 192.088 340.569 187.224C342.702 182.36 343.769 176.557 343.769 169.816C343.769 159.576 341.465 151.64 336.857 146.008C332.334 140.376 325.892 137.56 317.529 137.56C312.068 137.56 307.374 138.84 303.449 141.4C299.524 143.875 296.494 147.544 294.361 152.408C292.313 157.187 291.289 162.989 291.289 169.816C291.289 179.971 293.593 187.907 298.201 193.624C302.809 199.341 309.252 202.2 317.529 202.2ZM382.163 215.896C379.774 215.981 377.896 215.341 376.531 213.976C375.166 212.611 374.483 210.861 374.483 208.728C374.483 207.107 374.995 205.699 376.019 204.504C376.958 203.224 378.366 202.541 380.243 202.456L384.083 202.2C387.838 201.944 390.654 200.792 392.531 198.744C394.494 196.611 395.475 193.581 395.475 189.656V132.056C395.475 129.325 396.158 127.277 397.523 125.912C398.974 124.461 401.022 123.736 403.667 123.736C406.312 123.736 408.318 124.461 409.683 125.912C411.134 127.277 411.859 129.325 411.859 132.056V189.528C411.859 194.904 410.878 199.469 408.915 203.224C407.038 206.979 404.222 209.923 400.467 212.056C396.712 214.104 392.062 215.299 386.515 215.64L382.163 215.896ZM452.885 215C450.069 215 447.893 214.275 446.357 212.824C444.906 211.288 444.181 209.112 444.181 206.296V133.464C444.181 130.648 444.906 128.515 446.357 127.064C447.893 125.528 450.069 124.76 452.885 124.76H498.581C500.714 124.76 502.336 125.315 503.445 126.424C504.64 127.533 505.237 129.112 505.237 131.16C505.237 133.293 504.64 134.957 503.445 136.152C502.336 137.261 500.714 137.816 498.581 137.816H459.925V162.648H495.765C497.984 162.648 499.648 163.203 500.757 164.312C501.866 165.421 502.421 167.043 502.421 169.176C502.421 171.309 501.866 172.931 500.757 174.04C499.648 175.149 497.984 175.704 495.765 175.704H459.925V201.944H498.581C500.714 201.944 502.336 202.499 503.445 203.608C504.64 204.717 505.237 206.339 505.237 208.472C505.237 210.605 504.64 212.227 503.445 213.336C502.336 214.445 500.714 215 498.581 215H452.885ZM575.215 216.28C565.828 216.28 557.764 214.403 551.023 210.648C544.367 206.808 539.247 201.432 535.663 194.52C532.079 187.523 530.287 179.288 530.287 169.816C530.287 162.733 531.311 156.376 533.359 150.744C535.407 145.027 538.351 140.163 542.191 136.152C546.031 132.056 550.724 128.941 556.271 126.808C561.903 124.589 568.218 123.48 575.215 123.48C579.908 123.48 584.516 124.077 589.039 125.272C593.562 126.467 597.53 128.173 600.943 130.392C602.735 131.501 603.93 132.867 604.527 134.488C605.124 136.024 605.252 137.56 604.911 139.096C604.57 140.547 603.844 141.784 602.735 142.808C601.711 143.832 600.388 144.429 598.767 144.6C597.231 144.685 595.524 144.131 593.647 142.936C591.002 141.229 588.143 139.992 585.071 139.224C581.999 138.456 578.884 138.072 575.727 138.072C569.668 138.072 564.548 139.309 560.367 141.784C556.186 144.259 553.028 147.843 550.895 152.536C548.762 157.229 547.695 162.989 547.695 169.816C547.695 176.557 548.762 182.317 550.895 187.096C553.028 191.875 556.186 195.501 560.367 197.976C564.548 200.451 569.668 201.688 575.727 201.688C578.97 201.688 582.17 201.304 585.327 200.536C588.484 199.683 591.471 198.403 594.287 196.696C596.164 195.587 597.828 195.117 599.279 195.288C600.815 195.373 602.095 195.885 603.119 196.824C604.143 197.763 604.826 198.957 605.167 200.408C605.508 201.773 605.423 203.224 604.911 204.76C604.399 206.211 603.375 207.491 601.839 208.6C598.426 211.075 594.33 212.995 589.551 214.36C584.858 215.64 580.079 216.28 575.215 216.28ZM661.733 216.024C659.088 216.024 657.04 215.299 655.589 213.848C654.224 212.312 653.541 210.221 653.541 207.576V138.456H628.581C626.362 138.456 624.613 137.859 623.333 136.664C622.138 135.384 621.541 133.677 621.541 131.544C621.541 129.325 622.138 127.661 623.333 126.552C624.613 125.357 626.362 124.76 628.581 124.76H694.885C697.104 124.76 698.81 125.357 700.005 126.552C701.285 127.661 701.925 129.325 701.925 131.544C701.925 133.677 701.285 135.384 700.005 136.664C698.81 137.859 697.104 138.456 694.885 138.456H669.925V207.576C669.925 210.221 669.242 212.312 667.877 213.848C666.512 215.299 664.464 216.024 661.733 216.024Z" fill="#222222"/>
<path d="M853.963 215H825.4L807.588 186.438L789.963 215H762.025L792.338 168.25L763.838 123.625H791.213L807.713 151.875L823.588 123.625H851.775L822.838 170.188L853.963 215Z" fill="#13AE85"/>
<path d="M335 81V45C335 22.9086 317.091 5 295 5H45C22.9086 5 5.00001 22.9086 5.00001 45L5 295C5 317.091 22.9086 335 45 335H295C317.091 335 335 317.091 335 295V258" stroke="#13AE85" stroke-width="10" stroke-linecap="round"/>
<path d="M335 81V55C335 27.3858 312.614 5 285 5H55C27.3858 5 5.00001 27.3858 5.00001 55L5 285C5 312.614 27.3858 335 55 335H285C312.614 335 335 312.614 335 285V258" stroke="#222222" stroke-width="10" stroke-linecap="round"/>
</svg>
