<svg width="528" height="359" viewBox="0 0 528 359" fill="none" xmlns="http://www.w3.org/2000/svg">
<path d="M503.822 241.152H457.462C446.102 241.152 436.584 233.415 436.584 223.614C436.584 218.713 439.041 214.329 442.725 211.234C446.409 208.139 451.628 206.076 457.462 206.076H464.216C470.05 206.076 475.269 204.012 478.953 200.917C482.638 197.822 485.094 193.437 485.094 188.537C485.094 178.994 475.883 170.999 464.216 170.999H322.629C318.922 170.999 316.539 166.449 316.539 162.745C316.539 153.461 307.635 145.981 296.583 145.981H243.897C242.562 145.981 241.281 145.451 240.337 144.508C239.393 143.565 238.863 142.286 238.863 140.952C238.863 139.618 239.393 138.339 240.337 137.395C241.281 136.452 242.562 135.922 243.897 135.922H445.795C454.699 135.922 462.988 132.827 468.822 127.927C474.655 123.026 478.34 116.063 478.34 108.583C478.34 93.366 463.603 81.2441 445.795 81.2441H341.526C325.158 81.2441 308.96 68.6057 292.591 68.6057H234.395C225.841 68.6057 218.906 61.6775 218.906 53.1307C218.906 44.5839 225.841 37.6556 234.395 37.6556H364.741C370.882 37.6556 376.716 35.5923 380.707 32.24C384.698 28.8868 387.154 24.2438 387.154 18.8274C387.154 8.51097 377.023 0 364.741 0H64.1673C58.0274 0 52.1939 2.06407 48.2025 5.41643C44.2111 8.76957 41.7546 13.4118 41.7546 18.8282C41.7546 29.1446 51.8867 37.6556 64.1673 37.6556H71.843C81.9751 37.6556 90.5714 44.6197 90.5714 53.3885C90.5714 57.7737 88.4221 61.6424 85.045 64.4792C81.6679 67.3167 77.0622 69.1214 71.843 69.1214H34.6933C28.2462 69.1214 22.1055 71.4432 17.807 75.0534C13.5092 78.6644 10.7456 83.5652 10.7456 89.2394C10.7456 100.329 21.4912 109.099 34.3861 109.099H72.1501C84.4307 109.099 94.5628 117.61 94.5628 127.927C94.5628 133.085 92.1064 137.728 88.115 141.08C84.1236 144.433 78.5972 146.497 72.4573 146.497H38.6847C33.1583 146.497 28.2462 148.302 24.562 151.397C20.8777 154.492 18.7284 158.619 18.7284 163.262C18.7284 172.546 27.6319 180.026 38.6847 180.026H66.0094C81.6679 180.026 94.2557 190.601 94.2557 203.754C94.2557 210.202 91.1857 216.392 85.9657 220.519C80.7465 224.903 73.6851 227.483 66.0094 227.483H27.9391C20.2634 227.483 13.202 230.062 8.28997 234.446C3.06996 238.573 0 244.505 0 250.953C0 263.849 12.5877 274.424 27.9391 274.424H145.489C158.474 274.424 171.227 281.645 184.213 281.645H205.598C213.796 281.645 220.442 288.285 220.442 296.476C220.442 304.666 213.796 311.306 205.598 311.306H153.511C146.756 311.306 140.923 313.627 136.625 317.238C132.326 320.849 129.563 326.007 129.563 331.423C129.563 342.514 140.309 351.54 153.511 351.54H472.813C479.568 351.54 485.401 349.219 489.7 345.608C493.997 341.997 496.761 336.84 496.761 331.423C496.761 320.332 486.015 311.306 472.813 311.306H463.296C453.471 311.306 445.795 304.6 445.795 296.604C445.795 292.478 447.637 288.867 451.015 286.288C454.085 283.708 458.69 281.903 463.603 281.903H503.822C510.577 281.903 516.41 279.582 520.709 275.971C525.007 272.36 527.77 267.202 527.77 261.785C527.77 250.179 517.024 241.152 503.822 241.152Z" fill="url(#paint0_linear_86_99)"/>
<path d="M196.444 147.647V98.8548C196.444 62.9276 225.599 33.7993 261.556 33.7993C297.515 33.7993 326.669 62.9276 326.669 98.8548V147.647" stroke="#155D4A" stroke-width="32.641" stroke-linecap="round" stroke-linejoin="round"/>
<path fill-rule="evenodd" clip-rule="evenodd" d="M357.892 346.64H165.221C143.93 346.64 126.686 329.41 126.686 308.139V173.386C126.686 152.115 143.93 134.886 165.221 134.886H357.892C379.182 134.886 396.426 152.115 396.426 173.386V308.139C396.426 329.41 379.182 346.64 357.892 346.64Z" fill="#155D4A" stroke="#155D4A" stroke-width="24.31" stroke-linecap="round" stroke-linejoin="round"/>
<path d="M260.29 286.952V238.669M260.236 209.91C252.39 209.91 246.023 216.272 246.08 224.11C246.08 231.949 252.447 238.311 260.293 238.311C268.138 238.311 274.506 231.949 274.506 224.11C274.506 216.272 268.138 209.91 260.236 209.91Z" stroke="white" stroke-width="30" stroke-linecap="round" stroke-linejoin="round"/>
<path fill-rule="evenodd" clip-rule="evenodd" d="M498.569 100.616C498.569 158.214 455.172 212.07 396.849 225.147C338.525 212.07 295.129 158.214 295.129 100.616V55.3723C295.13 50.3328 296.634 45.4079 299.449 41.2262C302.264 37.0446 306.262 33.7959 310.934 31.8949L374.509 5.94297C388.827 0.0956707 404.87 0.0956707 419.189 5.94297L482.764 31.8949C492.325 35.8011 498.569 45.073 498.569 55.3723V100.616Z" fill="#222222"/>
<path d="M436.56 85.5848L389.972 131.723L361.964 104.051" stroke="white" stroke-width="28" stroke-linecap="round" stroke-linejoin="round"/>
<defs>
<linearGradient id="paint0_linear_86_99" x1="275.138" y1="548.635" x2="267.917" y2="-382.487" gradientUnits="userSpaceOnUse">
<stop stop-color="white"/>
<stop offset="1" stop-color="#EEEEEE"/>
</linearGradient>
</defs>
</svg>
