<svg width="528" height="325" viewBox="0 0 528 325" fill="none" xmlns="http://www.w3.org/2000/svg">
<path d="M26.981 135.949C47.8164 146.284 75.4701 132.995 75.4701 132.995C75.4701 132.995 69.3244 102.954 48.4779 92.6332C27.6425 82.2976 0 95.5725 0 95.5725C0 95.5725 6.14562 125.614 26.981 135.949Z" fill="url(#paint0_linear_86_69)"/>
<path d="M493.827 168.149C482.507 174.933 466.266 168.661 466.266 168.661C466.266 168.661 468.389 151.392 479.717 144.615C491.037 137.831 507.271 144.094 507.271 144.094C507.271 144.094 505.147 161.364 493.827 168.149Z" fill="url(#paint1_linear_86_69)"/>
<path d="M78.6462 283.642C82.1806 283.642 85.0458 280.777 85.0458 277.243C85.0458 273.708 82.1806 270.843 78.6462 270.843C75.1118 270.843 72.2466 273.708 72.2466 277.243C72.2466 280.777 75.1118 283.642 78.6462 283.642Z" fill="#222222"/>
<path d="M495.426 239.063C500.531 239.063 504.669 234.924 504.669 229.819C504.669 224.714 500.531 220.576 495.426 220.576C490.32 220.576 486.182 224.714 486.182 229.819C486.182 234.924 490.32 239.063 495.426 239.063Z" fill="#222222"/>
<path d="M46.0584 221.009C49.9436 221.009 53.0932 217.859 53.0932 213.974C53.0932 210.089 49.9436 206.939 46.0584 206.939C42.1732 206.939 39.0236 210.089 39.0236 213.974C39.0236 217.859 42.1732 221.009 46.0584 221.009Z" fill="#222222"/>
<path d="M85.4442 35.4038C89.7639 35.4038 93.2658 31.9019 93.2658 27.5821C93.2658 23.2624 89.7639 19.7605 85.4442 19.7605C81.1244 19.7605 77.6225 23.2624 77.6225 27.5821C77.6225 31.9019 81.1244 35.4038 85.4442 35.4038Z" fill="#222222"/>
<path d="M513.723 76.9788C513.723 80.8579 516.867 84.0025 520.746 84.0025C524.625 84.0025 527.77 80.8579 527.77 76.9788C527.77 73.0997 524.625 69.9551 520.746 69.9551C516.867 69.9551 513.723 73.0997 513.723 76.9788Z" fill="#222222"/>
<path d="M314.855 18.6869C320.015 18.6869 324.198 14.5037 324.198 9.34344C324.198 4.1832 320.015 0 314.855 0C309.694 0 305.511 4.1832 305.511 9.34344C305.511 14.5037 309.694 18.6869 314.855 18.6869Z" fill="#222222"/>
<path d="M71.6639 180.755C75.6336 180.755 78.8517 178.181 78.8517 175.006C78.8517 171.83 75.6336 169.256 71.6639 169.256C67.6943 169.256 64.4762 171.83 64.4762 175.006C64.4762 178.181 67.6943 180.755 71.6639 180.755Z" fill="#222222"/>
<path d="M442.251 35.2916H442.149C441.542 43.8823 435.154 44.0142 435.154 44.0142C435.154 44.0142 442.199 44.152 442.199 54.0782C442.199 44.152 449.243 44.0142 449.243 44.0142C449.243 44.0142 442.857 43.8823 442.251 35.2916ZM452.954 260.158H452.856C452.274 268.723 446.14 268.855 446.14 268.855C446.14 268.855 452.904 268.992 452.904 278.888C452.904 268.992 459.667 268.855 459.667 268.855C459.667 268.855 453.536 268.723 452.954 260.158Z" fill="#222222"/>
<path d="M258.356 324.131C347.496 324.131 419.758 251.869 419.758 162.729C419.758 73.5896 347.496 1.32758 258.356 1.32758C169.217 1.32758 96.9545 73.5896 96.9545 162.729C96.9545 251.869 169.217 324.131 258.356 324.131Z" fill="#155D4A"/>
<mask id="mask0_86_69" style="mask-type:alpha" maskUnits="userSpaceOnUse" x="96" y="1" width="324" height="324">
<path d="M258.356 324.131C347.496 324.131 419.758 251.869 419.758 162.729C419.758 73.5896 347.496 1.32758 258.356 1.32758C169.217 1.32758 96.9545 73.5896 96.9545 162.729C96.9545 251.869 169.217 324.131 258.356 324.131Z" fill="#666AF6"/>
</mask>
<g mask="url(#mask0_86_69)">
<path d="M344.681 90.1973H172.748C158.251 90.1973 146.499 101.949 146.499 116.447V301.504C146.499 316.001 158.251 327.754 172.748 327.754H344.681C359.178 327.754 370.93 316.001 370.93 301.504V116.447C370.93 101.949 359.178 90.1973 344.681 90.1973Z" fill="white"/>
<path d="M205.25 215.217H312.11M205.25 244.207H312.11M222.622 273.286H294.807" stroke="#222222" stroke-width="14.431" stroke-linecap="round" stroke-linejoin="round"/>
<path d="M296.19 134.821L248.898 182.026L220.522 153.703" stroke="#155D4A" stroke-width="27.44" stroke-linecap="round" stroke-linejoin="round"/>
</g>
<defs>
<linearGradient id="paint0_linear_86_69" x1="106.991" y1="168.188" x2="-64.8594" y2="32.2532" gradientUnits="userSpaceOnUse">
<stop stop-color="#222222"/>
<stop offset="1" stop-color="#222222"/>
</linearGradient>
<linearGradient id="paint1_linear_86_69" x1="450.021" y1="189.988" x2="541.107" y2="105.357" gradientUnits="userSpaceOnUse">
<stop stop-color="#222222"/>
<stop offset="1" stop-color="#222222"/>
</linearGradient>
</defs>
</svg>
