<svg width="530" height="321" viewBox="0 0 530 321" fill="none" xmlns="http://www.w3.org/2000/svg">
<path d="M472.633 308.617H55.0281C42.6814 308.617 32.6682 298.597 32.6682 286.241V24.3774C32.6682 12.021 42.6814 2 55.0281 2H472.633C484.981 2 494.993 12.021 494.993 24.3774V286.241C494.993 298.597 484.981 308.617 472.633 308.617Z" fill="white" stroke="#222222" stroke-width="4"/>
<path d="M494.993 24.3774C494.993 26.2495 494.25 28.0449 492.927 29.3686C491.604 30.6923 489.81 31.4359 487.939 31.4359H39.722C37.8514 31.4359 36.0573 30.6923 34.7345 29.3686C33.4117 28.0449 32.6684 26.2495 32.6682 24.3774C32.6682 12.021 42.6814 2 55.0281 2H472.633C484.981 2 494.993 12.021 494.993 24.3774Z" fill="white" stroke="#222222" stroke-width="4"/>
<path d="M55.0729 22.9427C55.7567 22.9515 56.4354 22.8242 57.0697 22.5684C57.704 22.3126 58.2812 21.9332 58.7679 21.4524C59.2545 20.9716 59.6409 20.3988 59.9046 19.7673C60.1684 19.1359 60.3042 18.4583 60.3042 17.7739C60.3042 17.0895 60.1684 16.4119 59.9046 15.7804C59.6409 15.149 59.2545 14.5762 58.7679 14.0954C58.2812 13.6146 57.704 13.2352 57.0697 12.9794C56.4354 12.7236 55.7567 12.5963 55.0729 12.6051C53.7146 12.6225 52.4178 13.1747 51.4634 14.1422C50.509 15.1096 49.9738 16.4144 49.9738 17.7739C49.9738 19.1334 50.509 20.4382 51.4634 21.4056C52.4178 22.3731 53.7146 22.9253 55.0729 22.9427ZM76.5937 22.9427C77.2775 22.9515 77.9563 22.8242 78.5906 22.5684C79.2249 22.3126 79.8021 21.9332 80.2887 21.4524C80.7754 20.9716 81.1618 20.3988 81.4255 19.7673C81.6892 19.1359 81.825 18.4583 81.825 17.7739C81.825 17.0895 81.6892 16.4119 81.4255 15.7804C81.1618 15.149 80.7754 14.5762 80.2887 14.0954C79.8021 13.6146 79.2249 13.2352 78.5906 12.9794C77.9563 12.7236 77.2775 12.5963 76.5937 12.6051C75.2354 12.6225 73.9386 13.1747 72.9842 14.1422C72.0298 15.1096 71.4947 16.4144 71.4947 17.7739C71.4947 19.1334 72.0298 20.4382 72.9842 21.4056C73.9386 22.3731 75.2354 22.9253 76.5937 22.9427ZM97.2544 22.9427C97.9383 22.9515 98.617 22.8242 99.2513 22.5684C99.8856 22.3126 100.463 21.9332 100.949 21.4524C101.436 20.9716 101.822 20.3988 102.086 19.7673C102.35 19.1359 102.486 18.4583 102.486 17.7739C102.486 17.0895 102.35 16.4119 102.086 15.7804C101.822 15.149 101.436 14.5762 100.949 14.0954C100.463 13.6146 99.8856 13.2352 99.2513 12.9794C98.617 12.7236 97.9383 12.5963 97.2544 12.6051C95.8961 12.6225 94.5993 13.1747 93.6449 14.1422C92.6905 15.1096 92.1554 16.4144 92.1554 17.7739C92.1554 19.1334 92.6905 20.4382 93.6449 21.4056C94.5993 22.3731 95.8961 22.9253 97.2544 22.9427Z" fill="#222222"/>
<path d="M184.998 72.8185H9.31457C4.17027 72.8185 0 76.9921 0 82.1404V138.073C0 143.222 4.17027 147.395 9.31457 147.395H184.998C190.142 147.395 194.313 143.222 194.313 138.073V82.1404C194.313 76.9921 190.142 72.8185 184.998 72.8185Z" fill="#155E4A"/>
<path d="M169.949 95.7207H60.2397C57.8234 95.7207 55.8645 97.6809 55.8645 100.099C55.8645 102.517 57.8234 104.477 60.2397 104.477H169.949C172.365 104.477 174.324 102.517 174.324 100.099C174.324 97.6809 172.365 95.7207 169.949 95.7207Z" fill="white"/>
<path d="M128.219 115.255H60.2397C57.8234 115.255 55.8645 117.215 55.8645 119.633C55.8645 122.051 57.8234 124.011 60.2397 124.011H128.219C130.636 124.011 132.594 122.051 132.594 119.633C132.594 117.215 130.636 115.255 128.219 115.255Z" fill="white"/>
<path d="M31.6338 124.012C39.4402 124.012 45.7685 117.679 45.7685 109.866C45.7685 102.054 39.4402 95.7207 31.6338 95.7207C23.8274 95.7207 17.4991 102.054 17.4991 109.866C17.4991 117.679 23.8274 124.012 31.6338 124.012Z" fill="white"/>
<path d="M460.566 157.452H304.492C299.347 157.452 295.177 161.625 295.177 166.774V311.374C295.177 316.522 299.347 320.696 304.492 320.696H460.566C465.71 320.696 469.88 316.522 469.88 311.374V166.774C469.88 161.625 465.71 157.452 460.566 157.452Z" fill="#155E4A"/>
<path d="M447.975 269.031H349.337C347.165 269.031 345.404 270.793 345.404 272.967C345.404 275.141 347.165 276.904 349.337 276.904H447.975C450.147 276.904 451.908 275.141 451.908 272.967C451.908 270.793 450.147 269.031 447.975 269.031Z" fill="white"/>
<path d="M345.092 188.227V248.886C345.092 251.103 346.888 252.9 349.103 252.9H349.104C351.319 252.9 353.115 251.103 353.115 248.886V188.227C353.115 186.01 351.319 184.213 349.104 184.213H349.103C346.888 184.213 345.092 186.01 345.092 188.227Z" fill="white"/>
<path d="M379.855 188.227V248.886C379.855 251.103 381.65 252.9 383.865 252.9H383.866C386.081 252.9 387.877 251.103 387.877 248.886V188.227C387.877 186.01 386.081 184.213 383.866 184.213H383.865C381.65 184.213 379.855 186.01 379.855 188.227Z" fill="white"/>
<path d="M414.617 188.227V248.886C414.617 251.103 416.413 252.9 418.628 252.9H418.629C420.844 252.9 422.639 251.103 422.639 248.886V188.227C422.639 186.01 420.844 184.213 418.629 184.213H418.628C416.413 184.213 414.617 186.01 414.617 188.227Z" fill="white"/>
<path d="M410.456 286.595H349.337C347.165 286.595 345.404 288.357 345.404 290.531C345.404 292.705 347.165 294.467 349.337 294.467H410.456C412.628 294.467 414.39 292.705 414.39 290.531C414.39 288.357 412.628 286.595 410.456 286.595Z" fill="white"/>
<path d="M362.919 211.865V249.332C362.919 251.303 364.515 252.9 366.484 252.9H366.485C368.453 252.9 370.05 251.303 370.05 249.332V211.865C370.05 209.895 368.453 208.298 366.485 208.298H366.484C364.515 208.298 362.919 209.895 362.919 211.865Z" fill="white"/>
<path d="M397.681 211.865V249.332C397.681 251.303 399.277 252.9 401.246 252.9H401.247C403.216 252.9 404.812 251.303 404.812 249.332V211.865C404.812 209.895 403.216 208.298 401.247 208.298H401.246C399.277 208.298 397.681 209.895 397.681 211.865Z" fill="white"/>
<path d="M432.444 211.865V249.332C432.444 251.303 434.04 252.9 436.008 252.9H436.009C437.978 252.9 439.574 251.303 439.574 249.332V211.865C439.574 209.895 437.978 208.298 436.009 208.298H436.008C434.04 208.298 432.444 209.895 432.444 211.865Z" fill="white"/>
<path d="M323.619 294.466C330.637 294.466 336.327 288.772 336.327 281.749C336.327 274.725 330.637 269.031 323.619 269.031C316.6 269.031 310.911 274.725 310.911 281.749C310.911 288.772 316.6 294.466 323.619 294.466Z" fill="white"/>
<path d="M512.542 22.0751H346.713C338.305 22.0751 331.489 28.8965 331.489 37.3111V80.0827C331.489 88.4973 338.305 95.3187 346.713 95.3187H512.542C520.95 95.3187 527.766 88.4973 527.766 80.0827V37.3111C527.766 28.8965 520.95 22.0751 512.542 22.0751Z" fill="white" stroke="#222222" stroke-width="4"/>
<path d="M504.424 43.915H391.695C389.212 43.915 387.199 45.9292 387.199 48.4139C387.199 50.8985 389.212 52.9127 391.695 52.9127H504.424C506.907 52.9127 508.92 50.8985 508.92 48.4139C508.92 45.9292 506.907 43.915 504.424 43.915Z" fill="#222222"/>
<path d="M461.546 63.9876H391.695C389.212 63.9876 387.199 66.0018 387.199 68.4864C387.199 70.9711 389.212 72.9853 391.695 72.9853H461.546C464.029 72.9853 466.041 70.9711 466.041 68.4864C466.041 66.0018 464.029 63.9876 461.546 63.9876Z" fill="#222222"/>
<path fill-rule="evenodd" clip-rule="evenodd" d="M361.439 78.014C350.856 78.014 342.276 69.3049 342.276 58.5644C342.276 47.8239 350.856 39.1157 361.439 39.1157C372.023 39.1157 380.603 47.8239 380.603 58.5644C380.603 69.3049 372.023 78.014 361.439 78.014Z" fill="#155E4A"/>
<path d="M368.187 55.3234L360.092 63.9673L355.232 58.7819" stroke="white" stroke-width="3.568" stroke-linecap="round" stroke-linejoin="round"/>
<path d="M331.785 141.123C330.342 140.591 329.119 139.873 328.276 139.303C328.114 139.194 327.978 139.052 327.876 138.886C327.773 138.72 327.707 138.535 327.682 138.341C327.657 138.148 327.673 137.952 327.729 137.765C327.785 137.579 327.881 137.406 328.008 137.259C328.229 137.005 328.535 136.84 328.869 136.796C329.203 136.752 329.541 136.831 329.82 137.02C330.519 137.49 331.544 138.096 332.738 138.536L332.872 138.585C335.716 139.594 338.161 139.178 340.138 137.35C341.236 136.334 342.2 135.409 343.051 134.593C346.812 130.983 348.884 128.994 352.841 128.476C356.878 127.947 359.53 130.953 361.869 133.607C363.548 135.51 365.135 137.308 366.759 137.23L367.115 137.213L367.329 137.322C367.605 137.392 370.34 137.925 374.265 132.963C376.724 129.852 379.052 128.178 381.381 127.848C382.933 127.627 384.255 128.019 385.393 128.599C385.566 128.686 385.719 128.809 385.841 128.96C385.963 129.11 386.052 129.285 386.102 129.473C386.151 129.66 386.161 129.856 386.13 130.047C386.098 130.239 386.027 130.421 385.92 130.583C385.734 130.865 385.45 131.068 385.124 131.152C384.798 131.237 384.451 131.198 384.152 131.043C382.471 130.162 380.168 129.942 376.427 134.673C371.647 140.716 367.803 140.305 366.632 139.991C363.82 139.984 361.78 137.67 359.805 135.43C357.738 133.086 355.785 130.871 353.202 131.21C350.141 131.612 348.517 133.169 344.959 136.583C343.985 137.523 343.002 138.453 342.01 139.374C339.239 141.937 335.734 142.552 331.869 141.154C331.841 141.143 331.813 141.133 331.785 141.123Z" fill="#222222"/>
<path d="M387.299 132.663C385.856 132.13 384.633 131.413 383.79 130.842C383.629 130.733 383.492 130.591 383.39 130.425C383.288 130.26 383.222 130.074 383.196 129.881C383.171 129.688 383.187 129.491 383.243 129.305C383.3 129.118 383.395 128.946 383.523 128.799C383.743 128.544 384.049 128.379 384.383 128.335C384.717 128.291 385.055 128.37 385.334 128.559C386.033 129.03 387.058 129.636 388.252 130.076L388.386 130.125C391.23 131.133 393.676 130.718 395.652 128.889C396.75 127.874 397.714 126.949 398.565 126.133C402.326 122.523 404.398 120.534 408.356 120.015C412.393 119.486 415.044 122.493 417.384 125.147C419.062 127.05 420.649 128.848 422.274 128.77L422.629 128.753L422.843 128.862C423.12 128.932 425.854 129.465 429.779 124.502C432.239 121.392 434.566 119.718 436.896 119.387C438.448 119.167 439.77 119.559 440.907 120.139C441.08 120.226 441.233 120.349 441.355 120.5C441.477 120.65 441.566 120.825 441.616 121.013C441.666 121.2 441.675 121.396 441.644 121.587C441.613 121.779 441.541 121.961 441.434 122.123C441.248 122.405 440.965 122.607 440.638 122.692C440.312 122.777 439.966 122.738 439.667 122.583C437.985 121.701 435.683 121.482 431.941 126.213C427.162 132.256 423.318 131.845 422.146 131.53C419.335 131.523 417.295 129.209 415.319 126.97C413.252 124.625 411.299 122.411 408.716 122.749C405.655 123.151 404.031 124.709 400.474 128.123C399.5 129.062 398.517 129.993 397.525 130.914C394.754 133.476 391.248 134.092 387.384 132.694C387.355 132.682 387.327 132.673 387.299 132.663Z" fill="#222222"/>
<path d="M76.9651 178.902L67.4594 188.406L62.8414 183.798M97.5607 174.354H125.654M97.7797 188.303H144.238M76.9651 211.45L67.4594 220.954L62.8414 216.346M97.5607 206.902H125.654M97.7797 220.85H144.238M144.238 253.397H97.5607M144.238 239.448H97.7797" stroke="#222222" stroke-width="5.5" stroke-linecap="round" stroke-linejoin="round"/>
<path d="M69.9028 258.047C75.0349 258.047 79.1953 253.884 79.1953 248.748C79.1953 243.612 75.0349 239.449 69.9028 239.449C64.7714 239.449 60.611 243.612 60.611 248.748C60.611 253.884 64.7714 258.047 69.9028 258.047Z" stroke="#222222" stroke-width="5.5" stroke-linecap="round" stroke-linejoin="round"/>
<path d="M197.297 178.902L187.791 188.406L183.173 183.798M217.891 174.354H245.986M218.11 188.303H264.57M197.297 211.45L187.791 220.954L183.173 216.346M217.891 206.902H245.986M218.11 220.85H264.57M264.569 253.397H217.891M264.57 239.448H218.11" stroke="#222222" stroke-width="5.5" stroke-linecap="round" stroke-linejoin="round"/>
<path d="M190.234 258.047C195.367 258.047 199.526 253.884 199.526 248.748C199.526 243.612 195.367 239.449 190.234 239.449C185.103 239.449 180.943 243.612 180.943 248.748C180.943 253.884 185.103 258.047 190.234 258.047Z" stroke="#222222" stroke-width="5.5" stroke-linecap="round" stroke-linejoin="round"/>
<path d="M441.814 123.828C444.644 124.349 447.36 122.475 447.88 119.643C448.401 116.811 446.529 114.093 443.699 113.572C440.869 113.051 438.153 114.925 437.632 117.757C437.112 120.589 438.984 123.307 441.814 123.828Z" fill="#222222"/>
<path fill-rule="evenodd" clip-rule="evenodd" d="M317.793 103.03H315.957C315.744 103.03 315.541 102.945 315.391 102.795C315.241 102.644 315.156 102.441 315.156 102.228V100.391C315.156 99.9462 315.517 99.589 315.957 99.589H317.793C318.005 99.5896 318.209 99.6743 318.359 99.8245C318.509 99.9747 318.593 100.178 318.594 100.391V102.228C318.594 102.334 318.574 102.438 318.534 102.535C318.494 102.633 318.435 102.721 318.36 102.796C318.286 102.87 318.197 102.929 318.1 102.969C318.003 103.01 317.898 103.03 317.793 103.03ZM311.428 103.03H309.592C309.379 103.029 309.176 102.944 309.026 102.794C308.876 102.644 308.791 102.441 308.791 102.228V100.391C308.791 99.9462 309.152 99.589 309.592 99.589H311.428C311.64 99.5896 311.843 99.6743 311.993 99.8245C312.143 99.9747 312.228 100.178 312.229 100.391V102.228C312.228 102.441 312.143 102.644 311.993 102.794C311.843 102.944 311.64 103.029 311.428 103.03ZM305.058 103.03H303.223C303.011 103.029 302.807 102.944 302.657 102.794C302.507 102.644 302.422 102.441 302.421 102.228V100.391C302.421 99.9462 302.782 99.589 303.223 99.589H305.058C305.499 99.589 305.86 99.9504 305.86 100.391V102.228C305.86 102.334 305.839 102.438 305.799 102.535C305.759 102.633 305.7 102.721 305.625 102.796C305.551 102.87 305.462 102.929 305.365 102.969C305.268 103.009 305.163 103.03 305.058 103.03ZM298.693 103.03H296.857C296.645 103.029 296.442 102.944 296.292 102.794C296.141 102.644 296.057 102.441 296.056 102.228V100.391C296.056 99.9462 296.417 99.589 296.857 99.589H298.693C299.137 99.589 299.498 99.9504 299.498 100.391V102.228C299.496 102.441 299.41 102.644 299.259 102.794C299.109 102.944 298.905 103.029 298.693 103.03ZM292.327 103.03H290.491C290.278 103.03 290.074 102.945 289.923 102.795C289.773 102.645 289.687 102.441 289.686 102.228V100.391C289.686 99.9462 290.047 99.589 290.491 99.589H292.327C292.54 99.5896 292.743 99.6743 292.893 99.8245C293.043 99.9747 293.128 100.178 293.128 100.391V102.228C293.128 102.441 293.043 102.644 292.893 102.794C292.743 102.944 292.54 103.029 292.327 103.03ZM311.194 96.083H309.359C309.147 96.0823 308.943 95.9977 308.793 95.8475C308.643 95.6974 308.558 95.4939 308.557 95.2814V93.4404C308.557 92.9994 308.918 92.638 309.359 92.638H311.194C311.638 92.638 311.996 92.9994 311.996 93.4404V95.2772C311.997 95.3829 311.976 95.4876 311.936 95.5854C311.896 95.6832 311.837 95.7721 311.763 95.847C311.688 95.9219 311.6 95.9813 311.502 96.0218C311.404 96.0623 311.3 96.0831 311.194 96.083ZM304.829 96.083H302.993C302.781 96.0823 302.577 95.9977 302.427 95.8475C302.277 95.6973 302.192 95.4938 302.192 95.2814V93.4404C302.192 92.9994 302.553 92.638 302.993 92.638H304.829C305.27 92.638 305.631 92.9994 305.631 93.4404V95.2772C305.631 95.3829 305.611 95.4876 305.571 95.5854C305.531 95.6832 305.472 95.7721 305.397 95.847C305.323 95.9219 305.234 95.9813 305.137 96.0218C305.039 96.0623 304.935 96.0831 304.829 96.083ZM298.464 96.083H296.627C296.415 96.083 296.21 95.9987 296.06 95.8485C295.909 95.6983 295.823 95.4944 295.822 95.2814V93.4404C295.822 92.9994 296.183 92.638 296.627 92.638H298.464C298.903 92.638 299.265 92.9994 299.265 93.4404V95.2772C299.265 95.4902 299.18 95.6945 299.03 95.8455C298.88 95.9965 298.676 96.0819 298.464 96.083ZM305.058 110.493H303.223C303.01 110.492 302.807 110.407 302.657 110.257C302.506 110.107 302.422 109.903 302.421 109.69V107.854C302.421 107.409 302.782 107.051 303.223 107.051H305.058C305.499 107.051 305.86 107.413 305.86 107.854V109.69C305.86 109.796 305.84 109.9 305.799 109.998C305.759 110.095 305.7 110.184 305.626 110.258C305.551 110.333 305.463 110.392 305.365 110.432C305.268 110.472 305.164 110.493 305.058 110.493ZM298.693 110.493H296.857C296.645 110.492 296.441 110.407 296.291 110.257C296.141 110.107 296.056 109.903 296.056 109.69V107.854C296.056 107.409 296.417 107.051 296.857 107.051H298.693C299.137 107.051 299.498 107.413 299.498 107.854V109.69C299.496 109.903 299.41 110.107 299.26 110.257C299.109 110.407 298.905 110.492 298.693 110.493ZM285.705 74.4843H283.869C283.656 74.4841 283.453 74.3996 283.303 74.2493C283.153 74.099 283.068 73.8953 283.068 73.6827V71.8451C283.068 71.4007 283.429 71.0435 283.869 71.0435H285.705C285.917 71.0442 286.121 71.1289 286.271 71.279C286.421 71.4292 286.505 71.6327 286.506 71.8451V73.6827C286.506 73.7881 286.486 73.8925 286.446 73.9899C286.406 74.0873 286.347 74.1758 286.272 74.2503C286.198 74.3248 286.109 74.3838 286.012 74.424C285.915 74.4641 285.81 74.4847 285.705 74.4843ZM279.34 74.4843H277.504C277.291 74.4834 277.088 74.3987 276.938 74.2486C276.788 74.0985 276.703 73.8951 276.702 73.6827V71.8451C276.702 71.4007 277.064 71.0435 277.504 71.0435H279.34C279.552 71.0442 279.755 71.1289 279.905 71.279C280.055 71.4292 280.14 71.6327 280.141 71.8451V73.6827C280.14 73.8951 280.055 74.0986 279.905 74.2488C279.755 74.399 279.552 74.4836 279.34 74.4843ZM272.97 74.4843H271.134C270.922 74.4836 270.718 74.399 270.568 74.2488C270.418 74.0986 270.334 73.8951 270.333 73.6827V71.8451C270.333 71.4007 270.694 71.0435 271.134 71.0435H272.97C273.411 71.0435 273.772 71.405 273.772 71.8451V73.6827C273.772 73.7881 273.751 73.8925 273.711 73.9898C273.671 74.0872 273.612 74.1756 273.537 74.2501C273.463 74.3246 273.374 74.3836 273.277 74.4238C273.18 74.464 273.075 74.4845 272.97 74.4843ZM266.605 74.4843H264.769C264.556 74.4836 264.353 74.399 264.203 74.2488C264.053 74.0986 263.968 73.8951 263.968 73.6827V71.8451C263.968 71.4007 264.329 71.0435 264.769 71.0435H266.605C267.049 71.0435 267.41 71.405 267.41 71.8451V73.6827C267.408 73.8953 267.322 74.0984 267.171 74.2483C267.021 74.3983 266.817 74.483 266.605 74.4843ZM260.239 74.4843H258.403C258.19 74.4843 257.986 74.4 257.835 74.2498C257.685 74.0996 257.599 73.8957 257.598 73.6827V71.8451C257.598 71.4007 257.959 71.0435 258.403 71.0435H260.239C260.452 71.0442 260.655 71.1289 260.805 71.279C260.955 71.4292 261.04 71.6327 261.04 71.8451V73.6827C261.04 73.8951 260.955 74.0986 260.805 74.2488C260.655 74.399 260.452 74.4836 260.239 74.4843ZM279.106 67.5376H277.27C277.058 67.5369 276.855 67.4522 276.704 67.302C276.554 67.1519 276.47 66.9484 276.469 66.736V64.895C276.469 64.454 276.83 64.0925 277.27 64.0925H279.106C279.55 64.0925 279.907 64.454 279.907 64.895V66.7317C279.908 66.8374 279.888 66.9421 279.848 67.0399C279.808 67.1377 279.749 67.2266 279.674 67.3015C279.6 67.3764 279.511 67.4359 279.414 67.4764C279.316 67.5169 279.212 67.5377 279.106 67.5376ZM272.741 67.5376H270.905C270.693 67.5369 270.489 67.4522 270.339 67.302C270.189 67.1519 270.104 66.9484 270.104 66.736V64.895C270.104 64.454 270.465 64.0925 270.905 64.0925H272.741C273.181 64.0925 273.542 64.454 273.542 64.895V66.7317C273.543 66.8374 273.522 66.9421 273.482 67.0399C273.442 67.1377 273.383 67.2266 273.309 67.3015C273.235 67.3764 273.146 67.4359 273.049 67.4764C272.951 67.5169 272.846 67.5377 272.741 67.5376ZM266.376 67.5376H264.539C264.327 67.5376 264.122 67.4532 263.972 67.303C263.821 67.1528 263.735 66.949 263.734 66.736V64.895C263.734 64.454 264.095 64.0925 264.539 64.0925H266.376C266.815 64.0925 267.177 64.454 267.177 64.895V66.7317C267.177 66.9447 267.092 67.1491 266.942 67.3001C266.792 67.4511 266.588 67.5364 266.376 67.5376ZM272.97 81.9474H271.134C270.922 81.9463 270.719 81.8614 270.569 81.7111C270.419 81.5608 270.334 81.3574 270.333 81.145V79.3074C270.333 78.8638 270.694 78.5058 271.134 78.5058H272.97C273.411 78.5058 273.772 78.8672 273.772 79.3074V81.145C273.772 81.2504 273.751 81.3548 273.711 81.4522C273.671 81.5496 273.612 81.6381 273.537 81.7126C273.463 81.7872 273.374 81.8463 273.277 81.8866C273.18 81.9268 273.075 81.9475 272.97 81.9474ZM266.605 81.9474H264.769C264.556 81.9463 264.353 81.8614 264.203 81.7111C264.053 81.5608 263.969 81.3574 263.968 81.145V79.3074C263.968 78.8638 264.329 78.5058 264.769 78.5058H266.605C267.049 78.5058 267.41 78.8672 267.41 79.3074V81.145C267.407 81.3576 267.322 81.5606 267.171 81.7106C267.02 81.8606 266.817 81.9457 266.605 81.9474Z" fill="#222222"/>
<path d="M213.145 120.406C216.162 131.674 227.735 138.361 238.994 135.342C250.253 132.322 256.935 120.74 253.918 109.472C250.901 98.2045 239.328 91.5176 228.069 94.5368C216.81 97.556 210.128 109.138 213.145 120.406Z" fill="url(#paint0_linear_45_127)"/>
<path d="M218.97 118.844C221.125 126.892 229.391 131.669 237.433 129.512C245.475 127.356 250.248 119.083 248.093 111.034C245.938 102.986 237.672 98.2097 229.63 100.366C221.588 102.523 216.815 110.796 218.97 118.844Z" fill="white"/>
<path d="M238.994 135.342C235.642 136.241 232.119 136.299 228.739 135.51C225.359 134.721 222.226 133.11 219.616 130.82C217.007 128.53 215.002 125.631 213.779 122.38C212.557 119.129 212.154 115.626 212.607 112.183C213.06 108.739 214.355 105.46 216.376 102.637C218.398 99.813 221.084 97.5321 224.197 95.9957C227.31 94.4594 230.753 93.715 234.222 93.8286C237.691 93.9421 241.078 94.9101 244.084 96.6467L240.918 102.135C238.815 100.919 236.444 100.24 234.015 100.161C231.587 100.081 229.177 100.603 226.998 101.679C224.818 102.754 222.938 104.35 221.522 106.327C220.106 108.303 219.2 110.598 218.883 113.009C218.566 115.42 218.848 117.872 219.704 120.148C220.56 122.423 221.963 124.453 223.791 126.056C225.617 127.658 227.811 128.786 230.177 129.338C232.543 129.89 235.008 129.85 237.355 129.221L238.994 135.342Z" fill="#155E4A"/>
<defs>
<linearGradient id="paint0_linear_45_127" x1="190.519" y1="127.407" x2="298.18" y2="97.235" gradientUnits="userSpaceOnUse">
<stop stop-color="white"/>
<stop offset="1" stop-color="#EEEEEE"/>
</linearGradient>
</defs>
</svg>
